<?xml version="1.0" standalone="no"?>
<!DOCTYPE svg PUBLIC "-//W3C//DTD SVG 20010904//EN"
 "http://www.w3.org/TR/2001/REC-SVG-20010904/DTD/svg10.dtd">
<svg version="1.0" xmlns="http://www.w3.org/2000/svg"
 width="2544.000000pt" height="2514.000000pt" viewBox="0 0 2544.000000 2514.000000"
 preserveAspectRatio="xMidYMid meet">

<g transform="translate(0.000000,2514.000000) scale(0.100000,-0.100000)"
fill="#000000" stroke="none">
<path d="M12907 24816 c-12 -73 -159 -212 -295 -278 -62 -30 -75 -33 -167 -33
-113 0 -201 23 -315 80 -63 32 -93 56 -101 83 -11 34 -198 -95 -324 -223 -195
-198 -368 -527 -383 -728 -5 -75 -20 -93 -70 -83 -18 4 -35 -1 -52 -14 l-25
-20 63 0 c73 0 106 -15 151 -65 44 -50 42 -69 -6 -60 -90 18 -540 -3 -925 -45
-54 -5 -141 -14 -193 -20 -85 -9 -132 -16 -325 -51 -30 -6 -93 -16 -140 -24
-47 -8 -94 -16 -105 -19 -11 -3 -58 -14 -105 -25 -47 -11 -125 -29 -175 -41
-49 -12 -103 -25 -120 -30 -16 -5 -64 -18 -105 -30 -370 -104 -787 -260 -1140
-428 -116 -55 -221 -113 -175 -97 11 4 58 20 105 36 47 17 92 33 100 38 8 4
56 20 105 35 50 16 113 36 140 47 72 26 411 120 610 169 388 95 565 122 1250
191 206 20 678 40 925 39 146 -1 284 1 307 5 35 6 44 5 49 -10 10 -26 -20 -79
-69 -119 l-44 -36 -219 0 c-217 0 -698 -21 -909 -39 -445 -39 -486 -44 -795
-91 -268 -41 -242 -36 -575 -105 -98 -20 -375 -88 -510 -125 -293 -81 -780
-252 -970 -341 -84 -39 -158 -69 -170 -69 -8 0 -15 -4 -17 -8 -1 -4 -32 -20
-68 -36 -36 -16 -117 -55 -180 -86 -109 -54 -162 -82 -275 -145 -27 -16 -66
-37 -85 -48 -320 -179 -754 -484 -1053 -739 l-68 -59 -52 31 c-29 17 -83 46
-122 65 -132 62 -195 75 -195 39 0 -33 -29 -67 -96 -114 -131 -90 -240 -127
-353 -117 -93 8 -151 31 -252 99 -98 65 -139 108 -139 144 0 36 -26 40 -99 15
-409 -142 -721 -468 -850 -887 -17 -55 -37 -139 -46 -189 -20 -116 -20 -353
-1 -465 35 -196 112 -397 215 -558 32 -49 50 -86 45 -94 -4 -7 -31 -49 -59
-93 -86 -134 -85 -134 16 -15 73 87 77 90 106 90 37 0 123 -21 123 -31 0 -5
-17 -16 -38 -24 -20 -9 -42 -22 -48 -30 -6 -8 -47 -54 -91 -102 -72 -78 -179
-205 -298 -349 -92 -112 -405 -542 -405 -557 0 -2 -24 -40 -53 -84 -28 -44
-61 -95 -72 -114 -152 -261 -186 -323 -280 -514 -89 -181 -124 -259 -212 -475
-48 -118 -143 -382 -143 -398 0 -3 49 93 110 214 60 120 124 244 141 274 66
116 113 197 145 247 19 29 34 55 34 58 0 5 108 176 143 227 7 9 34 49 62 90
27 40 52 75 55 78 3 3 14 18 23 33 10 16 25 36 32 45 8 9 49 64 92 121 43 57
89 118 103 136 70 91 85 110 90 115 3 3 39 46 80 95 41 50 96 113 122 140 25
28 57 64 69 80 13 17 30 37 39 45 8 8 69 73 135 144 66 72 157 166 203 210 46
45 95 102 109 128 31 57 52 67 75 38 14 -17 18 -40 18 -99 0 -42 -4 -81 -8
-88 -4 -7 -59 -66 -122 -131 -118 -121 -276 -292 -345 -372 -22 -25 -60 -68
-85 -95 -25 -28 -56 -64 -69 -80 -14 -17 -52 -62 -85 -101 -34 -40 -81 -97
-106 -129 -25 -32 -59 -74 -76 -94 -17 -20 -79 -101 -138 -181 -59 -80 -113
-152 -120 -160 -6 -9 -30 -42 -51 -75 -22 -33 -42 -62 -45 -65 -10 -8 -151
-226 -221 -340 -110 -178 -129 -211 -129 -221 0 -5 -4 -9 -9 -9 -5 0 -18 -21
-30 -47 -12 -27 -42 -84 -67 -128 -62 -111 -274 -544 -274 -560 0 -3 -9 -27
-21 -53 -12 -26 -27 -60 -34 -77 -33 -73 -151 -398 -185 -510 -62 -200 -84
-279 -124 -440 -55 -226 -59 -244 -95 -450 -48 -271 -73 -474 -85 -690 l-5
-90 33 160 c53 250 62 292 106 461 65 251 178 603 250 779 5 11 21 54 36 95
15 41 30 80 34 85 4 6 17 37 30 70 13 33 35 87 50 120 16 33 38 85 51 115 32
76 269 545 302 597 15 24 27 45 27 48 0 3 32 60 71 128 39 67 83 142 96 166
59 104 225 364 356 561 81 120 262 379 284 405 5 6 27 35 50 65 22 30 50 66
62 79 11 13 21 27 21 30 0 3 14 22 31 41 17 19 38 46 47 60 67 100 612 783
619 776 4 -3 -3 -16 -15 -29 -12 -13 -22 -27 -22 -32 0 -4 14 9 30 30 31 39
37 50 20 40 -20 -12 -9 12 15 35 14 13 25 18 25 11 0 -7 20 9 45 36 48 52 49
56 34 122 -17 75 5 68 41 -13 l32 -75 72 -25 c301 -109 649 -113 951 -11 75
25 230 100 304 147 302 189 523 510 602 871 26 119 36 372 20 488 -28 193
-100 413 -137 415 -10 1 -40 2 -66 3 -50 1 -63 15 -27 26 12 4 130 80 263 169
203 136 324 215 696 451 19 13 85 53 145 90 61 37 126 78 145 90 36 24 483
288 580 343 30 17 52 32 49 32 -7 0 -102 -40 -164 -70 -22 -10 -66 -30 -97
-44 -311 -139 -963 -461 -1228 -608 -36 -19 -90 -49 -120 -65 -59 -33 -134
-74 -190 -106 -19 -11 -80 -46 -135 -77 -55 -31 -110 -63 -123 -71 -22 -13
-25 -12 -48 14 -29 34 -29 49 -5 103 16 35 66 84 85 84 4 0 25 12 47 26 23 14
62 37 87 51 26 15 61 34 78 44 18 10 76 41 130 70 55 28 117 62 139 74 196
111 746 366 1120 520 77 32 168 70 202 86 35 16 71 26 80 23 14 -4 15 -3 5 4
-11 7 -9 10 7 15 13 3 19 1 14 -5 -7 -13 14 -2 40 20 9 8 20 12 23 9 4 -3 13
1 21 9 9 8 22 13 30 10 8 -3 11 -1 8 4 -7 11 -5 12 45 15 42 3 113 32 106 44
-3 4 43 27 102 51 59 24 139 58 178 76 84 38 244 96 256 92 4 -2 -111 -50
-256 -108 -262 -104 -340 -141 -169 -80 279 100 347 125 438 155 55 19 127 44
160 56 33 12 80 27 105 34 25 7 77 24 115 38 39 14 142 48 230 75 88 28 198
62 245 77 134 42 581 170 920 264 231 63 139 53 -430 -50 -25 -4 -85 -15 -135
-23 -49 -9 -133 -25 -185 -36 -52 -11 -142 -30 -200 -41 -58 -11 -141 -28
-185 -39 -44 -10 -123 -28 -175 -40 -116 -26 -544 -134 -620 -156 -30 -8 -80
-22 -110 -29 -31 -8 -76 -20 -100 -28 -25 -9 -85 -27 -135 -42 -126 -38 -362
-114 -410 -132 -22 -9 -94 -35 -160 -58 -124 -44 -194 -70 -280 -104 -133 -52
-215 -85 -263 -107 -29 -13 -55 -24 -57 -24 -2 0 -30 -12 -62 -26 -32 -15 -83
-38 -113 -52 -102 -46 -495 -240 -575 -285 -44 -24 -111 -61 -150 -82 -38 -21
-72 -41 -75 -44 -3 -3 -14 -11 -25 -17 -72 -39 -121 -68 -205 -121 -84 -53
-97 -65 -108 -101 -24 -73 -40 -47 -43 71 -2 68 1 79 24 83 7 1 76 45 155 98
78 53 144 96 147 96 2 0 35 20 72 44 37 24 84 53 103 64 19 11 64 36 100 57
36 21 94 54 130 73 36 20 99 54 140 77 41 22 107 56 145 74 255 122 405 191
412 191 3 0 41 16 86 36 45 20 114 47 152 61 39 14 75 29 80 33 6 4 46 20 90
35 44 14 89 30 100 35 56 23 145 54 285 99 272 87 349 111 463 141 62 16 146
39 187 50 73 20 178 46 390 96 254 60 616 129 995 189 92 15 616 89 917 131
79 10 125 21 121 27 -4 6 2 8 15 5 12 -3 22 -2 24 3 2 5 91 11 198 14 l195 4
-105 -14 c-58 -8 -170 -21 -250 -31 -80 -9 -185 -23 -235 -30 l-90 -13 75 4
c41 3 118 9 170 15 143 15 338 30 495 38 l141 7 37 40 c34 35 37 37 31 15 -3
-14 -17 -43 -30 -65 l-23 -40 22 -55 c59 -143 172 -305 307 -440 295 -295 701
-450 1098 -418 406 32 783 239 1029 564 76 101 128 188 169 282 l32 74 -29 41
c-42 59 -38 71 15 43 24 -13 75 -29 113 -35 37 -7 120 -24 183 -38 63 -14 167
-36 230 -50 152 -33 175 -38 240 -56 30 -8 91 -22 135 -31 44 -10 94 -22 110
-27 17 -5 102 -27 190 -49 88 -22 203 -52 255 -66 255 -70 499 -140 634 -180
81 -25 151 -43 154 -40 3 3 0 6 -6 6 -7 0 -31 9 -55 20 -136 63 -791 318 -973
379 -34 11 -91 31 -125 44 -110 42 -523 175 -724 233 -242 71 -321 92 -377
104 -50 10 -58 15 -58 34 0 30 45 72 98 90 46 17 44 17 197 -23 130 -34 534
-162 680 -216 50 -18 169 -61 265 -95 176 -63 629 -240 879 -344 74 -31 137
-54 139 -51 7 7 -388 199 -623 304 -200 88 -293 137 -175 91 204 -79 511 -221
895 -412 254 -126 659 -347 651 -355 -3 -3 -241 104 -475 213 -41 19 -75 33
-77 31 -1 -1 133 -71 299 -155 306 -155 357 -182 610 -319 166 -89 201 -109
230 -127 12 -7 47 -27 77 -43 30 -17 100 -56 155 -88 55 -32 120 -69 145 -83
25 -14 57 -33 72 -43 14 -11 28 -19 31 -19 3 0 65 -36 138 -80 72 -44 133 -80
136 -80 2 0 16 -9 31 -19 15 -10 99 -63 187 -116 88 -54 197 -122 243 -152 45
-29 85 -53 88 -53 7 0 -63 58 -221 180 -40 31 -577 434 -625 469 -19 14 -39
29 -45 33 -5 5 -39 28 -75 52 -36 25 -105 72 -155 107 -247 170 -442 298 -565
371 -41 25 -104 64 -140 87 -36 22 -72 44 -80 48 -8 4 -60 33 -115 65 -55 33
-108 64 -119 69 -10 6 -35 20 -55 32 -20 11 -63 35 -96 52 -33 18 -78 42 -100
55 -54 31 -458 233 -520 259 -27 12 -77 35 -110 51 -81 38 -132 60 -139 60 -3
0 -33 13 -68 30 -35 16 -99 43 -143 60 -44 18 -93 37 -110 44 -16 8 -64 26
-105 40 -41 15 -84 32 -95 36 -11 5 -47 18 -80 29 -33 11 -100 34 -150 52 -49
17 -110 37 -135 44 -25 8 -76 23 -115 35 -38 12 -108 32 -155 45 -47 13 -119
33 -160 44 -41 12 -116 31 -167 43 l-91 21 -48 -32 c-27 -18 -50 -27 -52 -21
-5 14 50 98 85 132 32 31 2 33 293 -29 91 -19 210 -47 265 -63 55 -15 114 -31
130 -34 26 -6 127 -37 345 -105 160 -49 467 -163 577 -212 24 -10 45 -19 48
-19 6 0 46 -17 163 -71 35 -16 65 -29 68 -29 14 0 585 -282 609 -300 6 -5 39
-24 75 -42 36 -19 88 -47 115 -63 28 -16 64 -36 80 -45 55 -32 270 -162 295
-180 14 -10 47 -30 74 -45 28 -15 59 -36 70 -46 11 -11 23 -19 28 -19 4 0 39
-22 78 -50 39 -27 72 -50 75 -50 5 0 25 -14 270 -183 253 -176 777 -565 950
-706 19 -15 19 -15 5 3 -29 38 -341 305 -556 477 -121 96 -284 227 -364 291
-144 115 -252 217 -217 205 17 -6 146 -94 157 -107 3 -3 34 -28 70 -55 36 -27
108 -85 160 -130 52 -45 165 -140 250 -210 436 -363 917 -797 1065 -963 69
-76 69 -76 20 -37 -61 48 -281 231 -312 258 -13 11 -23 18 -23 15 0 -9 33 -42
110 -108 130 -114 351 -319 389 -362 14 -17 35 -28 50 -29 14 0 35 -4 46 -8
16 -7 7 -11 -38 -21 -33 -6 -67 -10 -77 -7 -37 10 -120 -266 -140 -463 -42
-424 118 -858 425 -1148 299 -284 734 -425 1145 -372 99 13 271 56 336 85 47
21 53 27 69 74 9 28 21 51 25 51 5 0 12 -17 16 -37 7 -43 19 -66 133 -251 44
-73 81 -135 81 -136 0 -2 28 -50 63 -107 34 -57 75 -129 91 -159 16 -30 37
-66 46 -80 9 -14 33 -54 52 -90 19 -36 45 -83 58 -105 12 -22 41 -74 63 -115
22 -41 46 -85 53 -97 8 -13 34 -60 58 -105 24 -46 66 -125 94 -176 28 -51 113
-216 189 -367 76 -150 139 -272 140 -271 4 3 -41 134 -60 178 -8 18 -27 67
-42 108 -15 41 -33 89 -40 105 -7 17 -43 107 -79 200 -37 94 -73 184 -80 200
-42 91 -56 124 -56 129 0 14 -130 309 -220 501 -21 44 -48 103 -60 130 -12 28
-83 172 -157 320 -103 208 -145 280 -179 315 -24 25 -44 51 -44 57 0 27 92 31
164 7 39 -14 52 -24 77 -68 31 -54 250 -493 292 -587 14 -30 38 -83 55 -119
110 -239 275 -635 374 -898 11 -29 22 -51 24 -49 5 4 -84 270 -151 452 -74
204 -342 860 -386 946 -17 35 -109 295 -128 367 -8 28 -7 32 9 32 14 0 41 -43
108 -177 118 -233 159 -334 222 -533 89 -287 135 -427 238 -730 169 -499 290
-901 280 -932 -3 -7 -35 72 -73 174 -38 103 -71 185 -73 183 -2 -2 19 -75 47
-162 53 -168 118 -379 146 -478 10 -33 24 -79 31 -101 7 -23 25 -86 39 -140
15 -55 31 -112 35 -129 8 -27 55 -209 94 -360 33 -128 98 -395 122 -505 15
-63 30 -131 34 -150 49 -216 124 -583 176 -862 21 -114 40 -206 42 -203 2 2
-1 59 -7 127 -6 68 -16 177 -21 243 -32 387 -34 409 -105 950 -17 128 -18 135
-59 380 -38 228 -43 259 -66 365 -11 52 -24 118 -29 145 -20 112 -95 430 -138
590 -20 72 -41 153 -48 180 -7 28 -22 79 -33 115 -11 36 -36 117 -56 180 -31
103 -73 226 -150 449 -30 85 -168 432 -201 506 -13 28 -33 73 -45 100 -67 149
-89 194 -164 345 -65 128 -258 485 -270 497 -1 1 -35 6 -75 9 -82 8 -79 14 19
43 128 37 113 42 173 -51 78 -122 173 -283 255 -433 55 -102 252 -491 252
-499 0 -3 13 -33 29 -68 56 -123 71 -157 71 -164 0 -4 8 -26 18 -48 10 -23 27
-59 36 -81 31 -68 166 -444 195 -540 10 -33 30 -94 44 -135 57 -170 193 -695
222 -858 8 -42 25 -131 39 -197 71 -335 172 -1047 182 -1290 25 -593 33 -852
34 -1001 0 -89 3 -189 7 -224 6 -59 9 -66 66 -127 l61 -64 4 -84 c4 -79 3 -85
-24 -121 -37 -49 -77 -64 -167 -64 -102 0 -185 23 -219 60 -31 33 -34 51 -17
99 6 17 8 38 5 46 -5 13 -13 12 -53 -9 -131 -67 -307 -221 -410 -360 -149
-202 -238 -432 -265 -692 -41 -396 140 -849 449 -1121 113 -100 251 -190 367
-242 l43 -19 48 30 c67 42 83 35 51 -24 -13 -25 -36 -91 -49 -145 -14 -54 -37
-138 -52 -188 -15 -49 -38 -124 -50 -165 -13 -41 -35 -115 -50 -165 -59 -196
-259 -784 -358 -1055 -19 -52 -51 -138 -70 -190 -31 -84 -220 -565 -262 -663
-79 -188 230 401 454 867 50 103 91 191 91 195 0 3 18 42 40 86 22 44 40 83
40 88 0 4 18 46 40 93 22 47 40 88 40 91 0 3 21 53 46 112 25 58 53 124 61
146 9 22 23 56 31 75 32 73 152 402 218 598 42 125 45 138 38 203 -4 38 -4 69
0 69 35 0 114 -75 143 -134 15 -31 13 -38 -35 -187 -44 -134 -91 -268 -137
-389 -31 -83 -67 -176 -76 -195 -4 -11 -44 -103 -87 -205 -44 -102 -89 -207
-102 -235 -35 -77 -327 -665 -353 -710 -13 -22 -45 -80 -72 -130 -26 -49 -59
-107 -72 -127 -12 -21 -23 -40 -23 -43 0 -10 -275 -469 -398 -665 -140 -222
-440 -679 -453 -690 -6 -4 -67 -95 -94 -139 -5 -9 -13 -18 -16 -21 -3 -3 -17
-22 -30 -42 -76 -116 -357 -506 -601 -833 -195 -260 -187 -258 77 30 61 66
119 129 130 141 59 63 176 194 201 224 16 19 38 44 49 56 11 11 38 42 60 68
22 27 63 74 90 105 28 32 59 68 70 82 11 13 43 51 70 83 54 64 64 76 122 148
43 52 83 103 184 233 39 50 76 97 82 105 7 8 30 40 52 70 22 30 48 64 57 74
10 11 18 23 18 27 0 4 6 14 13 21 16 16 99 133 214 301 106 154 121 178 283
436 22 34 40 66 40 69 0 3 6 13 14 21 7 9 24 36 37 61 13 25 27 47 30 50 3 3
19 30 34 60 16 30 37 66 46 80 33 51 199 374 262 510 19 41 53 115 76 163 23
49 41 91 41 94 0 2 9 24 20 49 11 24 29 64 40 88 10 24 29 70 41 102 11 33 29
78 40 101 10 24 19 45 19 48 0 7 67 190 80 220 22 49 127 405 169 572 l21 82
-47 46 c-53 51 -43 51 59 -1 31 -16 68 -26 88 -26 65 3 195 34 299 73 455 171
784 548 887 1019 28 125 26 419 -3 546 -42 178 -125 363 -232 514 -67 96 -233
256 -336 326 -125 86 -238 140 -390 190 l-130 42 -5 -29 c-5 -27 -83 -119
-101 -119 -4 0 -6 21 -3 48 8 68 -13 618 -31 807 -17 184 -62 509 -75 551 -8
23 -9 19 -5 -21 36 -370 53 -1031 32 -1227 l-9 -78 -34 0 c-34 0 -35 1 -30 33
24 144 40 399 39 632 -1 436 -34 763 -129 1288 -14 76 -24 143 -22 149 3 7 23
-60 46 -148 75 -286 72 -276 66 -224 -7 55 -87 395 -119 505 -65 221 -81 272
-130 415 -72 210 -108 304 -151 405 -40 91 -53 108 -27 35 29 -84 93 -314 129
-465 14 -60 34 -146 45 -190 10 -44 31 -147 45 -230 15 -82 30 -170 35 -195
34 -187 76 -578 99 -911 24 -358 2 -1192 -33 -1226 -11 -11 -38 -17 -64 -14
-7 0 -26 22 -44 47 l-32 47 13 216 c14 237 8 1006 -9 1211 -5 63 -14 178 -21
255 -20 250 -86 690 -140 935 -4 19 -17 80 -29 135 -54 255 -186 690 -299 990
-75 199 -250 591 -259 581 -2 -2 25 -80 61 -173 194 -505 307 -890 380 -1291
46 -248 54 -340 66 -697 5 -165 17 -419 25 -564 9 -146 14 -272 12 -280 -3 -9
-6 7 -7 34 -1 28 -3 57 -4 65 -2 8 -6 56 -10 105 -19 253 -91 836 -142 1155
-14 85 -36 238 -50 340 -34 255 -50 346 -85 485 -84 335 -174 584 -403 1113
-20 46 -36 87 -36 90 0 17 57 -81 136 -232 47 -92 88 -165 90 -163 2 2 -9 30
-25 63 -119 240 -172 344 -190 376 -11 21 -37 68 -57 105 -148 270 -361 590
-646 969 -5 7 10 38 38 80 291 434 322 1014 79 1472 -225 422 -640 688 -1137
727 -114 9 -198 -1 -198 -24 0 -9 5 -22 11 -28 31 -31 -38 -162 -139 -263
-116 -115 -239 -143 -458 -105 -48 8 -90 15 -95 15 -4 0 -13 -18 -19 -40 -13
-50 -27 -51 -46 -2 -10 22 -57 77 -117 136 -158 153 -350 332 -382 358 -17 12
-37 29 -45 38 -13 13 -104 92 -200 174 -14 11 -43 34 -65 50 -22 17 -42 33
-45 36 -7 9 -270 203 -305 226 -16 10 -32 21 -35 25 -4 5 -121 82 -280 184
-119 77 -181 115 -230 140 -30 16 -62 34 -70 41 -8 6 -78 44 -155 84 -77 40
-144 76 -150 81 -15 11 -346 165 -465 216 -114 49 -386 153 -398 153 -4 0 63
-36 148 -78 164 -83 284 -146 390 -207 36 -21 81 -46 100 -57 19 -11 66 -40
103 -64 37 -24 70 -44 73 -44 7 0 147 -91 281 -183 92 -63 297 -209 303 -216
3 -4 43 -35 90 -70 73 -55 235 -185 250 -201 3 -3 28 -23 55 -45 28 -22 70
-58 95 -81 25 -23 61 -55 80 -70 19 -16 42 -35 50 -44 8 -8 73 -69 144 -135
199 -185 466 -458 545 -558 14 -18 42 -47 60 -64 l35 -33 -21 -27 c-19 -25
-26 -28 -81 -27 l-60 1 -323 324 c-178 179 -351 349 -384 379 -112 101 -220
197 -255 226 -19 16 -51 43 -70 61 -19 17 -48 42 -65 54 -16 13 -32 26 -35 29
-7 8 -196 160 -236 190 -18 14 -64 47 -101 74 -37 28 -70 53 -73 56 -5 6 -115
85 -166 120 -12 8 -61 42 -109 75 -106 74 -233 156 -385 248 -105 64 -138 83
-240 140 -19 10 -39 22 -45 27 -11 8 -230 123 -321 169 -161 80 -389 185 -469
216 -33 12 -81 32 -106 43 -52 24 -175 69 -384 142 -496 172 -1054 296 -1639
363 l-109 12 -27 111 c-81 330 -278 626 -555 834 -159 120 -424 233 -576 247
l-66 6 -6 -37z m220 -1262 c72 -36 103 -74 103 -127 0 -82 -65 -157 -135 -157
-43 0 -114 26 -141 51 -12 11 -34 48 -49 81 l-27 59 29 57 c19 39 36 59 53 64
41 11 109 0 167 -28z m6607 -2479 c47 -52 86 -101 86 -107 0 -14 -27 14 -106
107 -64 77 -78 95 -71 95 3 0 44 -43 91 -95z m-13564 -299 c0 -7 -102 -78
-106 -73 -2 2 19 20 48 40 57 38 58 39 58 33z m15120 -685 c68 -32 94 -76 84
-139 -18 -116 -128 -170 -234 -117 -47 24 -101 104 -102 153 -1 43 39 112 75
127 42 19 107 10 177 -24z m-16333 7 c79 -29 133 -83 133 -132 0 -90 -56 -146
-145 -146 -89 0 -167 57 -206 150 -12 28 10 97 39 123 36 32 102 34 179 5z
m-897 -1478 c-22 -31 -40 -46 -40 -34 0 8 51 64 58 64 2 0 -6 -13 -18 -30z
m19440 -5306 c0 -8 -5 -12 -10 -9 -6 4 -8 11 -5 16 9 14 15 11 15 -7z m803
-1224 c76 -29 92 -49 92 -119 -1 -124 -111 -187 -232 -132 -33 15 -48 31 -69
73 -15 29 -27 65 -26 80 1 35 26 83 54 102 31 22 116 20 181 -4z m-526 -1429
c-20 -98 -170 -482 -183 -468 -5 5 67 223 161 485 9 26 27 12 22 -17z"/>
<path d="M11008 23593 c7 -3 16 -2 19 1 4 3 -2 6 -13 5 -11 0 -14 -3 -6 -6z"/>
<path d="M10870 23580 c-41 -6 -42 -7 -10 -8 19 0 58 3 85 8 47 7 48 7 10 7
-22 0 -60 -3 -85 -7z"/>
<path d="M10438 22793 c6 -2 18 -2 25 0 6 3 1 5 -13 5 -14 0 -19 -2 -12 -5z"/>
<path d="M10408 22683 c7 -3 16 -2 19 1 4 3 -2 6 -13 5 -11 0 -14 -3 -6 -6z"/>
<path d="M16377 22399 c7 -7 15 -10 18 -7 3 3 -2 9 -12 12 -14 6 -15 5 -6 -5z"/>
<path d="M19783 21304 c34 -31 86 -78 116 -106 35 -32 57 -46 63 -40 6 6 8 15
4 20 -7 11 -232 182 -240 182 -3 0 22 -25 57 -56z"/>
<path d="M18900 21111 c0 -5 12 -17 28 -26 l27 -18 -24 27 c-26 28 -31 31 -31
17z"/>
<path d="M3757 18091 c-9 -16 -32 -47 -50 -69 -36 -45 -186 -251 -278 -382
-83 -117 -90 -127 -126 -176 -18 -24 -33 -48 -33 -53 0 -5 -3 -11 -7 -13 -5
-1 -77 -106 -160 -233 -84 -126 -157 -235 -162 -241 -4 -5 -14 -21 -21 -35 -7
-13 -31 -53 -54 -89 -75 -116 -172 -275 -214 -350 -14 -25 -33 -56 -42 -70 -9
-14 -34 -56 -55 -95 -21 -38 -58 -106 -83 -150 -78 -138 -332 -636 -332 -649
0 -2 -22 -52 -50 -110 -27 -58 -50 -108 -50 -111 0 -2 -13 -34 -30 -70 -16
-36 -30 -68 -30 -71 0 -3 -16 -42 -36 -87 -20 -45 -54 -131 -76 -192 -22 -60
-56 -153 -75 -205 -53 -145 -133 -402 -169 -540 -14 -52 -29 -108 -34 -125
-27 -96 -40 -146 -50 -200 -7 -33 -16 -76 -20 -95 -4 -19 -22 -102 -38 -184
-29 -138 -30 -150 -15 -173 9 -13 14 -26 11 -28 -9 -10 -99 70 -104 93 -8 30
-31 28 -145 -9 -342 -112 -645 -366 -807 -678 -108 -207 -155 -396 -155 -626
0 -230 47 -419 155 -626 192 -370 580 -652 995 -724 l91 -16 56 36 c70 45 81
44 57 -2 -20 -42 -20 -48 5 -318 14 -151 23 -226 44 -355 5 -30 17 -100 26
-155 73 -452 223 -973 412 -1430 77 -187 168 -385 176 -385 4 0 -40 139 -64
205 -50 131 -179 623 -215 815 -81 438 -83 452 -126 865 -23 223 -54 849 -43
867 16 26 72 -11 131 -89 24 -32 26 -41 34 -245 9 -217 20 -397 39 -593 5 -60
14 -159 20 -220 25 -286 121 -807 211 -1145 57 -217 186 -607 196 -596 2 2
-14 69 -36 148 -130 467 -207 844 -250 1230 -29 258 -32 325 -23 533 5 123 3
289 -5 470 -15 343 -16 425 -4 425 5 0 12 -44 16 -97 17 -263 49 -665 80
-1008 23 -252 35 -436 35 -547 0 -176 6 -239 46 -463 32 -183 65 -320 126
-535 38 -137 167 -541 196 -619 3 -8 1 -12 -4 -9 -5 4 -43 85 -84 181 -41 97
-76 174 -78 172 -5 -4 71 -205 141 -370 89 -213 223 -485 343 -698 163 -288
372 -600 556 -831 162 -203 175 -212 70 -46 -166 262 -364 624 -467 855 -10
22 -30 67 -46 100 -15 33 -39 89 -54 125 -15 36 -33 79 -40 95 -7 17 -23 57
-35 90 -13 33 -29 74 -36 90 -56 131 -192 540 -250 750 -14 50 -29 105 -34
123 -17 57 -30 105 -45 172 -8 36 -24 99 -35 140 -12 41 -32 131 -47 200 -14
69 -29 141 -33 160 -21 92 -33 156 -55 285 -13 77 -33 192 -44 255 -11 63 -29
178 -40 255 -11 77 -29 201 -40 275 -33 219 -99 788 -102 875 -2 48 -5 53 -45
80 -76 52 -56 59 54 18 l74 -26 101 52 c251 129 484 363 610 617 49 98 102
261 121 373 18 109 21 304 5 417 -28 206 -127 438 -262 620 -143 190 -377 368
-590 449 -79 29 -87 30 -87 9 0 -17 -84 -104 -100 -104 -12 0 -12 2 0 36 8 19
8 29 0 34 -8 5 -3 58 14 176 14 92 24 170 22 171 -3 4 -38 -125 -62 -232 -21
-94 -40 -125 -30 -50 15 114 151 692 223 945 33 118 60 189 48 130 -31 -162
-65 -350 -65 -360 0 -33 11 5 35 116 14 65 39 173 55 239 16 66 40 167 54 225
42 179 146 582 205 795 16 55 38 135 50 177 11 42 23 85 26 95 7 22 -12 -15
-38 -77 -21 -49 -21 -51 -62 -155 -36 -92 -40 -104 -59 -147 -9 -20 -16 -40
-16 -44 0 -7 -31 -90 -117 -314 -14 -36 -38 -105 -54 -155 -16 -49 -33 -99
-39 -110 -28 -62 -219 -665 -275 -875 -13 -47 -33 -121 -45 -165 -12 -44 -35
-134 -51 -200 -39 -161 -61 -237 -72 -252 -18 -25 -67 -15 -99 19 -28 30 -30
36 -24 83 4 27 11 64 16 80 6 17 28 102 50 190 56 220 79 306 89 335 6 14 22
66 37 115 35 119 154 476 198 595 77 209 95 257 116 305 13 28 35 84 51 125
65 176 222 545 408 964 61 138 109 251 107 253 -6 7 -141 -242 -283 -524 -81
-160 -149 -290 -151 -288 -5 5 375 760 483 960 95 176 263 465 270 465 4 0
-148 -327 -186 -401 -11 -23 -19 -43 -16 -45 2 -2 39 64 82 148 79 156 156
304 205 393 15 28 46 86 70 130 24 44 54 100 68 125 14 25 46 81 70 125 99
178 132 236 204 360 119 206 172 298 192 328 10 15 14 27 9 27 -5 0 -16 -13
-26 -29z m-1787 -6005 c66 -34 80 -54 80 -112 0 -45 -5 -59 -31 -89 -45 -50
-95 -62 -177 -40 -54 15 -68 24 -94 59 -52 71 -54 80 -28 135 12 27 32 54 44
60 32 16 165 8 206 -13z"/>
<path d="M15700 17542 c0 -5 7 -13 16 -16 10 -4 14 -1 12 6 -5 15 -28 23 -28
10z"/>
<path d="M15795 17505 c11 -9 19 -21 17 -27 -2 -6 3 -36 9 -67 17 -73 17 -73
8 -92 -17 -35 -15 -73 4 -92 17 -17 18 -28 12 -100 -4 -46 -13 -87 -21 -95
-18 -17 -17 -30 1 -66 12 -22 13 -32 3 -43 -9 -11 -8 -20 5 -43 17 -28 14 -60
-5 -60 -6 0 -8 -12 -5 -27 3 -16 12 -63 20 -106 7 -44 19 -82 26 -86 7 -5 9
-23 6 -49 -3 -22 -1 -44 5 -47 12 -8 13 -55 1 -74 -5 -7 -14 -10 -20 -7 -18
11 -13 -60 5 -75 11 -9 14 -23 10 -47 -4 -30 -2 -34 25 -44 16 -5 26 -14 23
-19 -3 -5 -1 -9 4 -9 5 0 9 -6 9 -14 0 -7 -10 -13 -21 -12 -20 1 -21 -5 -22
-85 -1 -47 -4 -95 -8 -106 -4 -12 -1 -27 6 -35 18 -19 20 -32 22 -119 1 -49 6
-82 15 -93 12 -14 12 -23 3 -50 -13 -36 -8 -61 14 -70 17 -6 19 -73 3 -78 -7
-2 -4 -16 10 -38 25 -41 27 -73 6 -90 -20 -16 -20 -44 0 -37 16 7 30 -9 16
-17 -6 -4 -6 -18 -1 -35 4 -15 4 -35 -1 -42 -12 -19 -11 -39 2 -39 5 0 8 4 5
8 -2 4 -1 14 5 22 6 11 9 12 9 2 0 -7 4 -11 9 -7 5 3 12 -3 15 -12 9 -30 3
-95 -9 -99 -6 -3 -10 -17 -7 -34 2 -17 9 -27 14 -24 6 4 8 -2 3 -15 -11 -34 3
-81 22 -74 11 4 14 2 9 -5 -4 -7 -20 -10 -37 -7 -20 4 -28 2 -24 -5 9 -15 -58
-44 -700 -305 -99 -40 -243 -99 -320 -130 -77 -32 -187 -77 -245 -100 -296
-120 -561 -227 -795 -322 -544 -220 -797 -323 -1002 -406 l-212 -86 -78 28
c-43 16 -139 52 -213 81 -74 28 -160 61 -190 72 -86 31 -1746 441 -2550 629
-119 29 -346 86 -805 206 -115 30 -241 65 -280 78 -38 13 -95 30 -125 38 -30
8 -107 32 -170 52 -63 20 -133 41 -154 47 -41 9 -276 92 -496 173 -69 25 -173
63 -232 85 -59 21 -117 44 -129 51 -12 6 -52 22 -88 34 -77 26 -314 121 -339
135 -9 5 -51 26 -92 45 -126 58 -296 163 -400 246 -30 24 -91 70 -135 103 -44
32 -124 102 -179 155 l-99 96 7 -185 c3 -102 9 -215 12 -251 l7 -66 86 -36
c84 -35 88 -36 196 -32 94 3 124 0 205 -21 52 -14 110 -35 130 -47 19 -12 37
-22 40 -23 3 0 54 -24 113 -52 60 -29 111 -52 115 -52 3 0 13 -6 21 -14 9 -8
104 -53 211 -100 107 -48 209 -94 227 -102 17 -9 34 -15 36 -13 2 2 10 -1 18
-7 8 -7 71 -37 141 -68 69 -30 168 -76 220 -100 52 -24 122 -56 157 -70 60
-26 135 -60 288 -132 40 -19 74 -34 77 -34 2 0 52 -22 110 -50 58 -27 108 -50
110 -50 3 0 49 -21 103 -46 54 -26 181 -84 283 -129 102 -45 226 -101 275
-123 50 -22 149 -66 220 -97 72 -32 150 -66 175 -77 60 -27 95 -42 155 -68 27
-12 63 -27 80 -35 115 -51 216 -95 219 -95 3 0 33 -13 68 -29 165 -75 935
-405 1283 -550 55 -23 114 -48 130 -55 55 -24 148 -64 365 -156 274 -116 350
-148 480 -204 207 -88 339 -136 377 -136 59 0 126 24 413 145 69 29 166 70
215 90 50 21 108 46 130 56 22 10 78 34 125 52 75 31 258 108 490 207 41 18
92 38 112 46 20 7 70 29 110 47 40 18 89 39 108 47 45 17 305 127 345 145 16
8 55 24 85 35 30 12 69 28 85 35 36 17 260 111 435 184 69 29 148 63 177 77
28 13 55 24 58 24 4 0 95 38 203 84 109 46 256 108 327 139 347 146 529 222
620 262 55 23 156 66 225 94 69 29 141 59 160 68 19 8 71 30 115 48 44 18 105
44 135 57 30 14 93 41 140 60 185 77 639 270 1185 503 132 56 267 112 300 125
33 12 69 26 80 30 11 5 41 17 66 29 26 11 60 23 75 27 16 4 73 25 127 47 l97
39 1 37 c0 20 13 216 28 436 15 220 25 403 21 407 -3 5 -42 19 -85 32 -44 13
-132 39 -195 59 -63 19 -279 86 -480 147 -201 61 -417 128 -480 147 -63 20
-155 48 -205 63 -49 15 -164 50 -255 78 -91 28 -217 66 -280 85 -63 20 -191
59 -285 88 -93 28 -219 67 -280 85 -122 37 -284 86 -540 164 -93 29 -228 69
-300 90 -71 21 -149 45 -173 54 -24 9 -53 16 -65 16 -12 0 -40 2 -62 5 -38 6
-39 5 -20 -10z"/>
<path d="M2831 16383 c-10 -26 -10 -27 4 -9 8 11 15 23 15 28 0 15 -7 8 -19
-19z"/>
<path d="M19238 15091 c-10 -20 -18 -49 -18 -63 0 -22 -9 -29 -62 -53 -83 -36
-772 -333 -1263 -545 -214 -92 -574 -248 -800 -345 -225 -97 -455 -196 -510
-220 -92 -39 -385 -165 -1460 -630 -225 -97 -486 -210 -580 -250 -93 -40 -354
-153 -580 -250 -225 -98 -598 -258 -828 -357 l-418 -180 -222 95 c-232 99
-909 391 -1227 529 -102 44 -230 100 -285 123 -55 24 -316 136 -580 250 -264
114 -624 269 -800 345 -176 76 -536 231 -800 345 -264 114 -525 227 -580 250
-55 24 -284 123 -510 220 -815 352 -1241 533 -1281 545 -37 11 -51 10 -115
-10 -86 -27 -179 -29 -234 -6 -20 9 -40 16 -43 16 -8 0 5 -269 38 -761 16
-250 52 -794 80 -1209 27 -415 66 -989 85 -1275 77 -1147 87 -1300 120 -1815
19 -294 37 -549 40 -567 5 -28 16 -37 101 -82 52 -28 115 -56 140 -61 75 -17
112 -36 274 -144 85 -57 180 -117 210 -134 57 -32 140 -78 270 -152 41 -23
104 -58 139 -77 35 -19 73 -40 85 -47 11 -8 48 -28 81 -46 33 -18 101 -56 150
-83 50 -27 115 -63 145 -79 152 -83 291 -160 440 -246 210 -121 675 -384 760
-430 36 -19 76 -42 90 -51 14 -9 50 -30 80 -45 30 -16 67 -37 82 -48 14 -10
28 -18 31 -18 3 0 34 -16 69 -36 34 -20 86 -49 113 -64 28 -15 93 -51 145 -80
52 -29 124 -69 160 -88 36 -19 76 -42 90 -51 14 -9 50 -30 80 -45 30 -16 67
-37 82 -48 14 -10 28 -18 31 -18 3 0 34 -16 69 -36 34 -20 83 -48 108 -62 25
-14 61 -34 80 -45 19 -11 55 -31 80 -45 25 -14 61 -34 80 -45 19 -11 64 -35
100 -55 36 -19 70 -38 75 -42 6 -4 37 -22 70 -40 65 -35 153 -83 200 -110 17
-10 59 -34 93 -54 35 -20 66 -36 69 -36 3 0 17 -8 31 -18 15 -11 52 -32 82
-48 30 -15 66 -36 80 -45 14 -9 57 -33 95 -54 175 -95 199 -108 205 -116 3 -3
28 -17 55 -31 59 -29 161 -85 192 -104 27 -17 72 -42 143 -80 30 -16 57 -32
60 -35 3 -3 39 -23 80 -45 41 -21 77 -41 80 -45 3 -4 28 -18 55 -31 28 -14 68
-35 90 -48 110 -64 176 -92 203 -85 46 11 130 54 365 187 125 70 229 128 232
128 2 0 38 20 78 45 41 25 77 45 81 45 3 0 35 18 71 40 36 22 67 40 70 40 3 0
89 48 192 106 104 59 217 123 253 142 36 19 76 43 90 52 14 9 54 31 90 49 36
19 72 39 80 46 8 6 33 20 55 30 22 10 51 26 65 35 14 10 54 33 90 53 64 34
144 79 310 172 47 26 114 64 150 83 36 20 67 38 70 41 3 4 23 15 45 26 22 11
56 30 75 41 20 12 60 35 90 51 30 16 73 40 95 53 22 13 60 34 85 47 25 13 54
30 65 36 11 7 47 27 80 45 33 18 67 37 75 42 21 14 134 77 209 117 35 19 76
42 90 52 14 9 44 26 66 36 22 10 52 26 67 37 14 10 50 31 80 47 60 32 201 111
226 126 9 6 44 25 77 43 33 18 78 44 100 58 22 13 51 30 65 37 26 13 125 70
245 142 39 23 151 87 250 142 174 97 218 121 390 213 44 23 94 50 110 60 17 9
62 34 100 55 39 21 104 57 145 80 41 23 100 56 130 72 30 17 71 39 90 50 19
11 55 31 80 45 25 14 62 35 82 46 21 12 68 38 105 58 37 20 73 40 78 44 6 4
35 21 65 37 149 81 216 117 345 183 77 39 143 75 147 79 8 7 28 280 93 1266
38 576 87 1311 140 2100 62 931 104 1572 130 1975 13 217 27 420 30 451 l6 56
-66 21 c-88 29 -97 28 -117 -17z"/>
<path d="M15965 15100 c-3 -5 -1 -10 4 -10 6 0 11 5 11 10 0 6 -2 10 -4 10 -3
0 -8 -4 -11 -10z"/>
<path d="M23812 14970 c0 -14 2 -19 5 -12 2 6 2 18 0 25 -3 6 -5 1 -5 -13z"/>
<path d="M23832 14870 c0 -14 2 -19 5 -12 2 6 2 18 0 25 -3 6 -5 1 -5 -13z"/>
<path d="M23851 14764 c0 -11 3 -14 6 -6 3 7 2 16 -1 19 -3 4 -6 -2 -5 -13z"/>
<path d="M2212 14055 c0 -16 2 -22 5 -12 2 9 2 23 0 30 -3 6 -5 -1 -5 -18z"/>
<path d="M2326 10465 c2 -22 8 -67 13 -100 5 -33 26 -168 45 -300 20 -132 41
-262 46 -290 20 -111 32 -174 45 -255 29 -174 102 -537 141 -699 14 -58 32
-135 39 -171 7 -36 23 -99 34 -140 11 -41 28 -104 36 -140 23 -94 112 -407
152 -535 44 -139 141 -434 153 -460 5 -11 21 -54 36 -95 15 -41 42 -111 60
-156 19 -45 34 -84 34 -87 0 -13 123 -294 192 -437 136 -284 322 -616 460
-822 61 -92 87 -118 45 -45 -198 341 -404 756 -512 1032 -104 264 -134 360
-175 559 -21 105 -46 216 -55 246 -9 30 -61 199 -115 375 -162 528 -196 643
-254 866 -58 219 -48 207 49 -59 26 -73 49 -131 51 -129 2 2 -14 59 -35 128
-68 216 -132 428 -144 474 -3 11 -15 52 -27 90 -12 39 -32 108 -45 155 -13 47
-44 159 -69 250 -37 131 -177 673 -199 765 -3 11 -3 2 -1 -20z"/>
<path d="M23837 10248 c-36 -152 -160 -529 -252 -763 -25 -66 -53 -133 -60
-150 -13 -29 -47 -109 -105 -246 -44 -105 -246 -502 -333 -654 -43 -77 -88
-156 -99 -175 -21 -37 -25 -43 -187 -295 -90 -139 -162 -246 -188 -280 -5 -5
-46 -64 -92 -130 -47 -66 -87 -122 -91 -125 -6 -4 -40 -49 -114 -149 -25 -32
-149 -184 -156 -191 -3 -3 -19 -23 -36 -45 -16 -22 -42 -53 -58 -70 -15 -16
-40 -46 -55 -65 -14 -19 -45 -55 -67 -80 -23 -25 -55 -61 -70 -80 -16 -19 -38
-44 -49 -56 -11 -11 -42 -45 -69 -75 -196 -219 -612 -643 -774 -789 -74 -67
-85 -80 -94 -123 -13 -62 -26 -50 -39 36 -7 47 -7 72 1 86 9 18 5 23 -40 46
-69 35 -211 81 -307 99 -154 29 -370 30 -380 1 -1 -5 17 -23 42 -39 111 -69
128 -116 75 -199 -37 -59 -116 -111 -200 -133 -55 -14 -74 -15 -124 -5 -68 14
-142 49 -170 80 -30 33 -24 83 18 151 20 32 36 63 36 70 0 31 -174 -43 -305
-132 -44 -29 -125 -98 -181 -153 -206 -202 -333 -458 -375 -754 -27 -190 8
-502 72 -651 l23 -52 -50 -45 c-27 -24 -38 -38 -24 -31 14 7 27 15 30 18 22
22 63 32 107 26 99 -14 105 -24 36 -57 -26 -13 -75 -39 -108 -59 -59 -36 -140
-81 -260 -146 -33 -18 -94 -50 -135 -73 -113 -60 -965 -487 -1120 -560 -311
-147 -558 -260 -777 -357 -73 -31 -131 -59 -129 -61 4 -5 380 120 676 225 336
119 1147 435 1326 517 30 14 57 25 59 25 3 0 52 23 110 50 58 28 108 50 110
50 2 0 83 38 178 85 155 76 177 90 205 130 36 51 46 55 63 23 14 -25 7 -144
-10 -175 -7 -14 -94 -63 -244 -137 -250 -124 -380 -186 -389 -186 -3 0 -45
-18 -92 -40 -47 -22 -91 -40 -97 -40 -6 0 -23 -6 -37 -14 -40 -20 -82 -38
-232 -95 -225 -87 -311 -119 -395 -146 -44 -14 -89 -30 -100 -35 -11 -5 -58
-21 -105 -35 -47 -15 -103 -33 -125 -42 -22 -8 -92 -31 -155 -50 -63 -18 -144
-43 -180 -54 -36 -11 -99 -29 -140 -40 -41 -11 -102 -29 -135 -40 -62 -19
-205 -58 -405 -108 -63 -16 -144 -37 -180 -46 -36 -9 -83 -21 -105 -27 -22 -5
-89 -21 -150 -34 -60 -14 -126 -29 -145 -33 -19 -5 -87 -20 -150 -34 -63 -14
-176 -39 -250 -55 -74 -17 -196 -42 -270 -57 -74 -15 -155 -31 -180 -36 -25
-6 -103 -21 -175 -34 -71 -14 -177 -34 -235 -45 -58 -12 -154 -30 -215 -40
-305 -54 -436 -85 -250 -60 39 6 126 17 195 25 148 17 192 23 500 69 129 20
280 42 335 50 144 22 363 43 565 56 96 6 236 20 310 31 74 11 203 29 285 40
83 11 179 26 215 34 36 8 83 16 105 19 36 5 66 10 190 36 45 10 155 37 200 50
17 5 82 22 145 38 109 29 195 55 410 124 134 43 476 166 530 190 25 12 69 29
99 39 30 11 59 23 65 27 6 5 38 19 71 32 83 32 135 56 410 191 230 114 297
149 469 249 43 25 99 57 125 72 44 25 46 29 51 80 l5 53 18 -49 c9 -27 17 -58
17 -67 0 -35 201 -153 360 -212 163 -61 280 -80 475 -81 139 0 189 4 275 23
260 56 502 190 678 375 390 411 474 1027 211 1548 -54 107 -54 107 -98 96 -23
-6 -50 -6 -72 0 l-34 9 25 11 c14 5 59 45 100 88 142 149 305 326 313 341 5 8
29 35 53 60 24 25 41 49 39 54 -3 4 6 16 20 27 14 11 25 25 25 30 0 6 5 14 12
18 7 5 8 3 3 -6 -5 -8 -4 -11 3 -6 6 4 9 13 6 20 -3 8 5 22 19 32 13 11 24 22
25 27 1 4 4 6 6 5 7 -5 56 45 56 56 0 6 -11 -2 -25 -19 -13 -16 -24 -26 -25
-22 0 12 33 54 42 53 10 -1 78 66 78 76 0 5 9 18 19 30 11 11 43 55 72 97 29
42 55 78 59 81 23 17 237 353 370 580 72 123 250 467 250 484 0 5 -28 -38 -63
-95 -71 -117 -192 -299 -304 -459 -42 -59 -191 -253 -261 -339 -100 -123 -147
-178 -292 -342 -83 -94 -483 -496 -545 -548 -22 -19 -62 -55 -90 -81 -62 -58
-165 -130 -186 -130 -21 0 -49 32 -49 57 0 44 25 90 74 133 481 426 920 891
1264 1340 61 80 122 159 136 176 15 18 26 37 26 43 0 6 4 11 8 11 4 0 16 15
27 33 10 17 22 34 25 37 4 3 28 37 53 75 26 39 50 75 55 80 17 21 179 285 244
400 85 147 248 478 316 640 65 154 93 225 88 225 -3 0 -48 -84 -102 -187 -129
-249 -193 -365 -211 -383 -8 -8 15 41 52 110 174 327 326 673 486 1102 24 64
45 115 47 113 6 -6 -44 -180 -101 -353 -30 -90 -51 -160 -46 -155 4 4 24 58
44 118 20 61 40 119 45 130 51 122 191 647 245 924 36 187 43 263 12 129z
m-824 -2193 c-3 -9 -8 -14 -10 -11 -3 3 -2 9 2 15 9 16 15 13 8 -4z m-689
-1487 c-27 -45 -198 -298 -252 -370 -63 -87 -83 -109 -61 -65 8 15 -2 10 -32
-18 l-43 -40 35 45 c137 174 224 288 284 368 37 50 70 92 72 92 2 0 1 -6 -3
-12z m-1550 -2013 c76 -22 101 -52 100 -120 -2 -89 -57 -145 -143 -145 -72 0
-122 30 -155 95 l-28 56 19 51 c13 38 25 54 48 64 40 18 96 17 159 -1z"/>
<path d="M18841 8888 c-7 -18 -19 -55 -25 -83 l-12 -50 -185 -106 c-203 -116
-745 -425 -1254 -714 -181 -103 -364 -206 -405 -230 -41 -23 -159 -90 -262
-149 -209 -118 -459 -260 -738 -418 -310 -177 -693 -394 -935 -531 -232 -132
-838 -476 -1235 -702 -118 -67 -300 -171 -405 -230 -104 -59 -236 -134 -291
-166 -56 -32 -153 -85 -216 -118 -160 -85 -172 -84 -376 30 -94 53 -263 149
-502 284 -124 70 -277 157 -340 193 -63 35 -144 81 -180 102 -36 21 -164 94
-285 162 -121 69 -303 172 -405 230 -102 58 -284 161 -405 230 -121 69 -472
268 -780 443 -641 365 -738 420 -1075 610 -135 75 -321 181 -415 235 -152 87
-287 164 -830 472 -254 144 -397 224 -464 258 l-65 32 -60 -21 c-70 -25 -152
-27 -201 -7 -19 8 -37 12 -39 8 -4 -7 8 -299 19 -457 l7 -91 532 -311 c292
-171 887 -519 1321 -773 435 -255 1173 -686 1640 -960 468 -273 1210 -708
1650 -965 440 -257 865 -506 943 -553 124 -72 147 -83 166 -74 13 6 198 112
412 237 436 255 1557 911 1734 1015 190 112 2813 1646 3620 2118 239 139 440
259 446 265 9 10 55 640 54 738 0 24 -8 30 -71 53 -38 14 -71 26 -72 26 -2 0
-9 -15 -16 -32z"/>
<path d="M2851 8594 c0 -11 3 -14 6 -6 3 7 2 16 -1 19 -3 4 -6 -2 -5 -13z"/>
<path d="M2905 8345 c43 -182 270 -848 464 -1365 28 -74 69 -198 91 -275 23
-77 57 -187 76 -245 50 -150 262 -572 400 -795 165 -268 162 -262 146 -277
-11 -11 -18 -8 -38 17 -13 17 -24 25 -24 19 0 -6 9 -19 20 -29 11 -10 22 -26
25 -35 3 -10 20 -21 38 -25 l32 -7 -35 -10 c-19 -5 -52 -8 -73 -5 -37 5 -37 4
-71 -56 -127 -229 -191 -529 -166 -779 32 -327 153 -593 373 -817 423 -432
1102 -514 1640 -197 110 64 124 79 140 142 12 50 29 64 35 29 7 -45 12 -48 32
-25 l20 23 39 -34 c196 -169 451 -392 451 -395 0 -7 -113 70 -237 163 -62 45
-113 80 -113 75 0 -4 48 -43 106 -87 58 -44 115 -88 127 -97 51 -39 155 -115
197 -143 25 -16 47 -33 50 -36 15 -18 364 -233 535 -331 142 -81 469 -242 605
-298 25 -10 63 -26 85 -35 50 -21 35 -6 -30 30 -27 15 -72 41 -100 57 -27 16
-58 32 -67 35 -10 3 -18 9 -18 14 0 5 -5 9 -11 9 -12 0 -365 225 -386 246 -8
8 -18 14 -22 14 -7 0 -58 36 -98 70 -6 5 -24 17 -40 27 -15 10 -63 45 -106 78
-43 33 -93 71 -111 85 -18 14 -66 52 -106 85 -40 33 -88 72 -108 87 -19 15
-69 58 -111 96 -42 38 -92 82 -111 98 -19 15 -117 109 -218 208 -152 150 -182
185 -180 206 4 31 39 37 118 20 50 -11 63 -21 170 -125 63 -63 135 -131 159
-152 24 -21 58 -51 75 -68 87 -82 228 -206 285 -250 14 -10 28 -22 31 -26 5
-7 102 -87 163 -134 21 -17 60 -47 85 -67 168 -134 467 -339 700 -481 152 -91
537 -297 557 -297 5 0 -86 58 -201 128 -420 258 -601 384 -859 598 -119 99
-235 210 -235 225 0 5 -24 37 -52 71 -29 35 -60 72 -68 83 -14 19 -14 19 5 5
11 -8 49 -39 85 -70 57 -49 97 -85 270 -245 243 -224 327 -291 586 -468 287
-195 658 -399 1066 -587 65 -30 116 -56 114 -58 -4 -4 -220 74 -323 117 -40
16 -73 28 -73 25 0 -6 111 -57 193 -88 37 -14 82 -32 100 -40 60 -28 252 -97
407 -147 85 -28 166 -55 180 -60 14 -4 61 -18 105 -29 44 -12 103 -28 130 -35
184 -52 749 -165 761 -152 2 2 -31 13 -73 24 -43 12 -134 38 -203 58 -69 20
-138 40 -155 45 -56 16 -220 71 -250 84 -16 8 -41 17 -55 21 -35 10 -169 61
-220 83 -14 6 -47 20 -75 31 -27 10 -80 33 -117 50 -36 17 -69 31 -72 31 -7 0
-181 82 -326 154 -175 87 -301 156 -485 261 -55 32 -120 69 -144 83 -70 39
-396 251 -511 332 -58 40 -134 94 -170 119 -36 25 -74 53 -84 63 -11 10 -23
18 -27 18 -4 0 -14 6 -21 13 -7 6 -58 46 -113 87 -132 99 -377 293 -475 375
-26 22 -56 47 -66 55 -27 21 -138 114 -144 120 -3 3 -39 35 -80 70 -75 65
-222 198 -314 284 -48 45 -49 46 -101 40 -29 -4 -60 -2 -70 4 -17 9 -17 10 5
22 12 7 53 22 90 35 63 22 70 22 92 7 20 -14 124 -98 138 -112 3 -3 28 -23 55
-45 28 -22 59 -47 70 -57 11 -9 52 -42 90 -73 39 -31 77 -61 85 -68 8 -7 33
-26 55 -42 22 -16 42 -32 45 -35 3 -4 23 -19 45 -35 22 -17 42 -32 45 -35 3
-3 34 -28 70 -55 36 -28 67 -52 70 -55 3 -3 23 -19 45 -35 22 -16 47 -35 55
-42 17 -14 213 -159 250 -186 14 -9 41 -28 60 -42 19 -13 60 -42 90 -64 30
-22 107 -75 170 -118 63 -43 117 -81 120 -84 4 -5 181 -121 265 -174 16 -10
34 -22 40 -27 15 -12 267 -168 272 -168 3 0 58 -32 129 -77 10 -7 35 -20 54
-29 19 -10 46 -25 60 -35 50 -34 525 -277 685 -351 217 -100 258 -118 264
-118 4 0 45 -16 91 -36 406 -171 855 -303 1425 -418 66 -13 109 -25 95 -26
-23 -1 -23 -2 -5 -10 28 -12 83 -12 90 0 3 5 15 15 26 21 20 10 20 9 5 -18 -9
-15 -25 -39 -36 -53 l-20 -25 21 -75 c61 -225 145 -385 290 -556 191 -226 484
-392 774 -439 117 -19 319 -19 431 0 417 73 784 355 968 746 50 105 91 224
101 293 7 42 5 48 -29 87 -44 52 -46 64 -4 43 24 -13 46 -15 97 -10 36 4 134
11 216 16 326 20 440 33 810 95 297 50 647 137 983 245 123 39 294 102 289
106 -1 1 -27 -4 -57 -13 -30 -8 -104 -26 -165 -40 -60 -14 -126 -28 -145 -33
-156 -35 -281 -57 -580 -101 -399 -58 -1152 -95 -1402 -69 -68 7 -129 17 -135
23 -19 14 -16 51 5 69 9 9 36 25 60 37 41 21 51 22 245 15 437 -13 1099 28
1537 96 36 5 99 15 140 20 212 30 732 147 970 220 52 16 124 38 160 49 36 11
121 40 190 64 69 25 159 57 200 72 41 15 98 37 125 50 28 12 61 26 75 30 82
25 540 246 736 356 225 125 614 368 614 383 0 7 -31 -4 -47 -16 -39 -30 -618
-318 -640 -318 -3 0 -19 -6 -36 -14 -73 -32 -205 -86 -211 -86 -3 0 -25 -9
-49 -19 -23 -10 -76 -31 -117 -46 -41 -15 -97 -36 -125 -46 -27 -10 -88 -30
-135 -45 -47 -14 -119 -37 -160 -51 -330 -109 -1001 -262 -1365 -312 -38 -6
-144 -21 -235 -34 -91 -14 -219 -30 -285 -36 -66 -7 -165 -16 -220 -21 -341
-34 -836 -60 -1131 -60 l-231 0 -38 -30 c-21 -16 -42 -30 -47 -30 -16 0 3 42
45 103 l40 57 -29 68 c-172 408 -547 710 -972 783 -118 20 -302 26 -302 10 0
-5 21 -19 46 -31 67 -33 134 -99 134 -133 0 -59 -72 -141 -156 -179 -67 -29
-179 -27 -249 6 -66 30 -105 69 -105 106 0 36 47 107 105 158 26 23 45 45 42
48 -12 12 -131 -18 -227 -56 -306 -121 -556 -356 -705 -661 -25 -52 -44 -102
-41 -111 3 -14 -2 -16 -23 -13 -67 10 -145 14 -126 5 11 -5 31 -9 45 -9 54 -2
98 -23 143 -68 41 -41 59 -73 41 -73 -14 0 -304 61 -359 75 -33 9 -127 34
-210 55 -82 22 -184 49 -225 61 -41 11 -100 27 -130 35 -63 17 -81 22 -205 59
-267 79 -351 104 -535 162 -80 24 -167 51 -195 60 -27 8 -59 18 -70 23 -11 4
-123 42 -250 84 -263 86 -411 137 -574 195 -187 67 -168 54 134 -89 118 -56
235 -110 239 -110 2 0 47 -20 100 -45 53 -25 99 -45 102 -45 2 0 38 -16 78
-35 41 -19 77 -35 80 -35 3 0 29 -11 58 -24 87 -39 141 -62 178 -76 35 -12 70
-27 132 -54 18 -8 65 -26 103 -41 39 -15 79 -30 90 -35 29 -13 264 -101 294
-110 14 -5 71 -25 126 -45 164 -60 266 -95 335 -117 36 -11 117 -37 180 -58
63 -21 131 -41 150 -45 19 -4 59 -15 90 -25 139 -44 172 -51 207 -50 59 3 63
2 63 -23 0 -29 -56 -89 -98 -106 -31 -13 -51 -10 -152 17 -19 6 -71 20 -115
32 -102 27 -420 123 -455 137 -8 3 -69 25 -135 49 -231 81 -261 92 -385 142
-208 83 -302 122 -358 148 -28 13 -80 36 -115 50 -34 14 -118 53 -186 85 -68
32 -125 59 -128 59 -8 0 -519 254 -582 290 -36 20 -109 59 -161 87 -134 71
-200 107 -320 176 -58 33 -123 70 -145 82 -73 40 -90 50 -95 56 -3 4 -25 16
-49 29 -25 12 -107 60 -184 106 -77 46 -141 84 -144 84 -2 0 -24 14 -48 30
-24 17 -46 30 -50 30 -3 0 -55 31 -116 70 -60 38 -112 70 -114 70 -3 0 -75 45
-160 100 -86 55 -158 100 -161 100 -2 0 -27 16 -54 35 -27 19 -52 35 -55 35
-4 0 -34 19 -68 43 -34 23 -66 44 -72 47 -12 6 -205 133 -347 228 -54 36 -98
70 -98 75 0 5 13 51 29 101 54 168 66 246 66 431 0 187 -12 263 -67 428 -102
307 -328 574 -618 730 -145 77 -359 142 -450 135 l-44 -3 28 -30 c55 -58 76
-92 76 -121 0 -56 -57 -114 -160 -162 -45 -21 -70 -26 -137 -26 -74 0 -88 3
-156 37 -111 55 -148 109 -116 170 7 12 27 41 45 64 34 41 42 63 25 63 -5 0
-51 -11 -103 -24 -94 -25 -169 -52 -221 -82 -26 -15 -30 -15 -50 3 -15 12 -13
8 6 -15 24 -30 27 -42 27 -108 0 -41 -4 -74 -9 -74 -5 0 -20 17 -32 38 -13 20
-34 48 -47 62 -43 46 -143 191 -137 200 3 5 0 12 -6 16 -8 5 -9 3 -4 -6 6 -9
4 -11 -4 -6 -7 5 -10 15 -6 24 3 9 3 13 -1 9 -8 -8 -34 11 -34 25 0 5 5 6 12
2 7 -4 8 -3 4 5 -4 6 -11 9 -16 6 -4 -3 -15 6 -24 20 -20 31 -21 41 -1 25 9
-7 -12 29 -45 81 -33 52 -79 126 -102 164 -23 39 -45 72 -48 75 -7 7 -29 42
-37 60 -4 8 -31 52 -60 97 -29 46 -53 85 -53 88 0 2 -25 43 -55 90 -30 46 -55
87 -55 89 0 3 -31 57 -70 121 -38 64 -70 120 -70 125 0 6 -3 10 -7 10 -5 0
-13 10 -19 23 -6 12 -64 114 -129 227 -65 113 -129 225 -143 250 -13 25 -37
68 -52 95 -64 115 -96 174 -137 250 -23 44 -43 76 -43 71 0 -9 68 -173 124
-301 13 -27 28 -66 36 -85 7 -19 28 -68 46 -108 19 -41 34 -75 34 -77 0 -5
102 -231 139 -310 16 -33 55 -116 87 -185 60 -130 354 -715 394 -785 13 -22
36 -65 53 -95 16 -30 47 -84 67 -120 21 -36 47 -81 58 -100 11 -19 37 -64 57
-100 21 -36 52 -90 68 -120 17 -30 41 -68 55 -84 l24 -30 -24 -18 c-33 -26
-60 -31 -104 -19 -42 11 -36 3 -166 220 -37 62 -68 116 -68 120 0 3 -11 22
-24 41 -21 32 -55 93 -154 280 -54 103 -146 287 -192 385 -23 50 -62 131 -86
182 -24 51 -44 94 -44 97 0 3 -19 44 -41 93 -23 48 -47 104 -54 123 -7 19 -41
100 -75 180 -89 206 -194 468 -326 815 -106 279 -151 388 -139 340z m1201
-1997 c28 -40 76 -111 108 -156 32 -46 56 -86 53 -88 -2 -2 -21 21 -42 51 -21
31 -42 58 -48 62 -9 5 44 -95 88 -167 30 -48 49 -87 38 -75 -15 15 -114 179
-173 285 -29 52 -61 110 -71 128 -33 58 -4 33 47 -40z m254 -458 c6 -11 8 -20
6 -20 -3 0 -10 9 -16 20 -6 11 -8 20 -6 20 3 0 10 -9 16 -20z m1082 -1326 c67
-22 93 -55 92 -114 -1 -87 -59 -140 -152 -140 -76 0 -113 19 -150 77 -18 27
-32 55 -32 62 0 31 51 110 77 119 42 16 114 14 165 -4z m4959 -2772 c-7 -2
-18 1 -23 6 -8 8 -4 9 13 5 13 -4 18 -8 10 -11z m244 -76 c72 -25 124 -45 118
-45 -16 -1 -273 86 -282 95 -7 8 2 5 164 -50z m283 -86 c76 -22 208 -56 293
-76 85 -21 149 -39 144 -41 -20 -6 -567 136 -583 151 -9 10 4 7 146 -34z
m2168 -62 c73 -20 94 -46 94 -117 0 -53 -4 -65 -31 -96 -38 -42 -91 -59 -149
-46 -59 13 -83 33 -115 93 l-28 53 21 46 c12 25 27 50 34 56 29 24 106 29 174
11z m1717 5 c-7 -2 -21 -2 -30 0 -10 3 -4 5 12 5 17 0 24 -2 18 -5z m-176 -29
c-3 -3 -12 -4 -19 -1 -8 3 -5 6 6 6 11 1 17 -2 13 -5z m-74 -11 c-7 -2 -19 -2
-25 0 -7 3 -2 5 12 5 14 0 19 -2 13 -5z"/>
<path d="M6060 3537 c0 -2 15 -16 33 -33 l32 -29 -29 33 c-28 30 -36 37 -36
29z"/>
<path d="M8647 2129 c7 -7 15 -10 18 -7 3 3 -2 9 -12 12 -14 6 -15 5 -6 -5z"/>
<path d="M11288 1483 c6 -2 18 -2 25 0 6 3 1 5 -13 5 -14 0 -19 -2 -12 -5z"/>
</g>
</svg>
