<?xml version="1.0" standalone="no"?>
<!DOCTYPE svg PUBLIC "-//W3C//DTD SVG 20010904//EN"
 "http://www.w3.org/TR/2001/REC-SVG-20010904/DTD/svg10.dtd">
<svg version="1.0" xmlns="http://www.w3.org/2000/svg"
 width="3378.000000pt" height="762.000000pt" viewBox="0 0 3378.000000 762.000000"
 preserveAspectRatio="xMidYMid meet">

<g transform="translate(0.000000,762.000000) scale(0.100000,-0.100000)"
fill="#000000" stroke="none">
<path d="M3917 7321 c-41 -70 -136 -91 -221 -49 l-45 21 -36 -27 c-75 -57
-155 -190 -155 -256 0 -12 -7 -20 -17 -21 -15 0 -15 -2 2 -9 12 -4 26 -14 33
-22 10 -13 -7 -16 -126 -21 -229 -11 -460 -54 -662 -126 -86 -30 -200 -79
-200 -86 0 -2 26 5 58 16 91 32 279 77 387 93 227 33 565 46 565 20 0 -25 -30
-32 -165 -38 -201 -10 -353 -25 -485 -47 -383 -64 -727 -207 -998 -413 -52
-39 -102 -77 -112 -84 -15 -11 -25 -9 -64 9 l-46 23 -22 -21 c-35 -32 -83 -53
-120 -53 -36 0 -94 30 -119 63 l-17 21 -65 -32 c-77 -38 -139 -102 -182 -188
-28 -55 -30 -67 -30 -174 0 -111 1 -117 35 -185 19 -38 34 -75 33 -81 0 -6 13
-8 30 -6 30 5 30 4 -31 -64 -132 -148 -252 -328 -327 -489 -46 -98 -77 -175
-71 -175 2 0 14 19 26 43 87 168 215 346 373 519 59 64 111 120 117 123 6 4
10 -7 10 -26 0 -26 -15 -48 -77 -116 -308 -336 -510 -678 -602 -1023 -22 -80
-61 -298 -61 -333 1 -12 16 37 34 108 96 374 292 731 633 1152 68 84 123 161
124 170 0 15 2 14 11 -4 17 -36 63 -48 183 -48 100 1 115 3 169 29 147 72 236
213 236 374 0 88 -24 172 -52 180 -15 4 16 28 138 109 87 57 197 127 246 156
48 28 85 53 83 55 -4 5 -379 -183 -453 -226 -72 -43 -102 -50 -102 -24 0 13
16 30 48 49 72 45 313 163 452 222 123 52 620 221 753 256 109 29 69 29 -80 0
-375 -72 -714 -180 -971 -309 -112 -56 -245 -134 -254 -149 -5 -7 -8 -1 -8 14
0 16 10 33 28 46 99 73 329 194 489 257 303 118 790 218 1132 232 63 2 110 9
119 16 13 11 14 10 4 -8 -16 -30 19 -96 88 -164 163 -163 408 -167 575 -9 69
65 109 131 100 166 -3 14 -2 22 4 19 5 -3 78 -22 163 -41 84 -19 218 -52 298
-74 80 -21 146 -38 148 -36 8 7 -391 147 -555 195 -40 11 -73 24 -73 29 0 4
11 13 24 19 19 9 38 7 88 -7 95 -28 211 -68 325 -113 57 -21 108 -36 114 -32
8 4 9 3 5 -4 -4 -7 -5 -12 -3 -12 3 0 21 -7 42 -16 21 -8 34 -10 30 -4 -4 6
43 -14 104 -45 61 -30 111 -59 111 -64 0 -5 51 -36 113 -69 106 -57 350 -197
410 -236 15 -10 27 -16 27 -13 0 10 -228 176 -360 262 -260 170 -508 292 -765
377 -82 27 -171 50 -196 51 l-47 2 15 26 c14 23 14 31 0 80 -20 67 -61 133
-118 188 -45 43 -140 95 -194 106 -26 5 -33 1 -48 -24z m84 -361 c23 -13 25
-52 4 -70 -34 -28 -94 17 -80 60 7 22 44 27 76 10z m-2403 -1033 c7 -6 12 -22
10 -36 -6 -50 -98 -31 -98 20 0 36 52 45 88 16z"/>
<path d="M4419 6961 c373 -98 682 -253 1051 -527 74 -54 139 -99 147 -100 20
-3 193 -164 190 -178 -1 -6 4 -10 11 -8 8 1 11 -2 8 -7 -3 -5 9 -22 27 -37
l32 -28 -21 -22 c-14 -14 -26 -45 -34 -93 -44 -241 131 -465 372 -479 94 -5
184 11 200 38 11 17 13 16 27 -9 152 -265 205 -360 241 -429 102 -200 26 8
-112 303 -44 93 -86 178 -95 187 -15 17 -14 18 10 18 39 0 60 -29 134 -191 37
-81 69 -147 70 -145 1 1 -27 76 -63 165 -66 167 -81 233 -27 126 41 -81 136
-372 127 -386 -5 -8 -3 -9 6 -4 10 6 12 3 8 -13 -4 -12 -3 -20 1 -17 10 5 65
-171 58 -182 -3 -5 3 -36 14 -68 26 -79 133 -515 155 -632 10 -51 19 -91 21
-89 5 5 -26 280 -48 416 -56 356 -160 685 -297 945 -47 88 -63 111 -83 114
-22 3 -21 5 11 16 29 9 41 23 68 76 44 87 59 169 45 258 -25 158 -132 285
-280 331 -82 25 -153 27 -153 4 0 -30 -40 -82 -77 -99 -26 -13 -49 -16 -83
-11 -27 4 -50 2 -52 -3 -1 -5 -44 30 -95 79 -191 184 -443 352 -667 444 -63
26 -56 18 29 -30 207 -118 393 -263 573 -447 97 -99 114 -127 75 -127 -9 0
-77 60 -152 133 -165 160 -265 241 -438 357 -307 204 -665 339 -993 375 -42 4
-28 -2 59 -24z m1079 -519 c61 -51 112 -96 112 -98 0 -2 -67 51 -150 117 -82
67 -150 124 -150 127 0 7 66 -44 188 -146z m929 -519 c29 -38 -35 -84 -73 -52
-17 14 -18 51 -2 67 16 16 58 7 75 -15z"/>
<path d="M3128 6693 c7 -3 16 -2 19 1 4 3 -2 6 -13 5 -11 0 -14 -3 -6 -6z"/>
<path d="M6651 5558 c111 -188 205 -421 263 -657 59 -236 82 -404 97 -711 9
-176 14 -229 26 -242 36 -41 13 -98 -39 -98 -40 0 -68 17 -68 40 0 11 -4 20
-8 20 -19 0 -94 -62 -123 -103 -120 -162 -110 -371 25 -515 51 -54 136 -105
160 -96 13 5 13 -4 -5 -68 -28 -103 -124 -391 -175 -527 -24 -63 -42 -116 -40
-118 1 -2 39 72 83 164 88 182 188 427 206 505 12 50 22 55 43 22 10 -16 7
-34 -20 -115 -113 -327 -311 -679 -653 -1159 -103 -145 -95 -139 68 47 326
372 539 734 649 1104 25 83 28 105 18 117 -11 13 -10 14 10 3 50 -27 189 29
269 108 95 93 139 231 114 353 -31 149 -129 263 -270 313 -41 14 -45 14 -57
-2 -7 -10 -16 -15 -19 -11 -4 4 -11 82 -16 174 -5 92 -12 170 -15 173 -4 3 -3
-44 0 -105 7 -108 0 -234 -13 -234 -4 0 -5 65 -3 145 3 84 -1 191 -8 257 -8
62 -14 131 -16 153 -2 44 -32 161 -63 245 -26 73 -26 63 4 -67 41 -183 57
-348 53 -566 -2 -107 -6 -199 -10 -203 -4 -4 -14 -1 -23 6 -13 10 -15 47 -15
227 0 301 -24 490 -91 729 -41 149 -108 316 -121 307 -7 -4 -9 0 -5 10 4 10 2
17 -4 17 -6 0 -8 7 -5 16 3 8 2 13 -3 10 -11 -7 -23 22 -15 35 3 5 0 9 -6 9
-6 0 -9 4 -5 9 3 5 -2 17 -11 25 -8 9 -12 16 -9 16 10 0 -48 101 -117 203 -65
97 -84 115 -37 35z m239 -433 c0 -5 -5 -3 -10 5 -5 8 -10 20 -10 25 0 6 5 3
10 -5 5 -8 10 -19 10 -25z m91 -310 c11 -53 21 -145 24 -225 5 -157 4 -154
-35 131 -17 119 -37 239 -45 265 -24 80 -15 75 12 -6 13 -41 33 -115 44 -165z
m339 -1260 c27 -32 -7 -73 -52 -62 -29 8 -41 30 -33 58 8 23 67 26 85 4z
m-201 -494 c-6 -18 -13 -30 -15 -28 -2 2 1 18 7 36 6 18 13 30 15 28 2 -2 -1
-18 -7 -36z"/>
<path d="M7762 5168 l3 -353 1773 -3 1772 -2 0 -193 c0 -122 -5 -212 -13 -247
-33 -137 -144 -236 -294 -260 -35 -6 -689 -10 -1650 -10 l-1593 0 0 -1060 0
-1060 2130 0 2131 0 -3 748 -3 747 -33 67 c-52 107 -174 196 -270 199 -19 0
-11 5 25 14 147 40 238 129 269 264 11 44 14 213 14 779 l0 722 -2130 0 -2130
0 2 -352z m3237 -1778 c123 -20 228 -98 279 -208 26 -55 27 -63 30 -274 l4
-218 -1421 0 -1421 0 0 350 0 349 113 4 c314 8 2358 6 2416 -3z"/>
<path d="M12735 5448 c16 -164 85 -307 205 -428 83 -82 170 -139 270 -173 l65
-22 1545 -3 c1727 -3 1618 -7 1768 68 143 72 254 184 322 325 38 79 70 201 70
270 l0 35 -2126 0 -2127 0 8 -72z"/>
<path d="M17690 5168 l0 -353 532 -532 533 -533 -533 -533 -532 -532 0 -353 0
-352 355 0 355 0 0 173 0 172 710 710 710 710 710 -710 710 -710 0 -172 0
-173 355 0 355 0 0 352 0 353 -532 532 -533 533 533 533 532 532 0 353 0 352
-355 0 -355 0 0 -178 0 -177 -710 -710 -710 -710 -710 710 -710 710 0 177 0
178 -355 0 -355 0 0 -352z"/>
<path d="M22660 5170 l0 -350 1773 -2 1772 -3 -1 -215 c-1 -196 -3 -220 -23
-271 -41 -107 -136 -189 -250 -215 -45 -11 -362 -14 -1663 -14 l-1608 0 0
-1060 0 -1060 2125 0 2125 0 -2 748 -3 747 -33 67 c-51 105 -151 181 -259 197
l-48 7 60 12 c116 23 203 93 254 202 l26 55 3 753 3 752 -2126 0 -2125 0 0
-350z m3332 -1808 c120 -59 189 -152 209 -284 5 -35 8 -137 7 -228 l-3 -165
-1420 0 -1420 0 -3 345 c-1 190 0 351 3 358 4 10 252 12 1282 10 l1278 -3 67
-33z"/>
<path d="M27620 3750 l0 -1770 355 0 355 0 0 1770 0 1770 -355 0 -355 0 0
-1770z"/>
<path d="M29045 5458 c16 -144 64 -266 148 -376 84 -108 199 -190 332 -234 69
-23 75 -23 680 -28 l610 -5 3 -1417 2 -1418 350 0 350 0 0 1413 0 1414 167 6
c91 4 356 7 587 7 394 0 426 1 495 20 100 28 165 60 245 121 157 119 256 296
273 487 l6 72 -2128 0 -2127 0 7 -62z"/>
<path d="M1119 5205 c-193 -274 -380 -610 -462 -835 -38 -103 -87 -276 -109
-379 -12 -59 -14 -63 -29 -49 -14 14 -20 14 -60 1 -61 -21 -143 -77 -179 -123
-17 -21 -43 -65 -58 -97 -24 -52 -27 -69 -27 -163 0 -92 4 -112 27 -161 49
-106 149 -191 263 -224 41 -12 63 -14 79 -7 21 9 22 8 24 -57 4 -120 48 -340
98 -489 23 -67 82 -203 68 -157 -21 74 -56 224 -69 300 -28 169 -45 435 -27
435 28 0 40 -40 46 -155 11 -197 41 -391 87 -562 10 -40 19 -75 19 -78 0 -4 5
-3 11 1 8 4 9 -1 4 -17 -4 -13 -4 -21 0 -16 9 8 56 -123 49 -135 -7 -11 89
-210 143 -298 45 -72 142 -210 148 -210 2 0 -23 46 -54 103 -173 312 -268 629
-331 1106 -11 84 -20 172 -20 194 0 24 -7 48 -17 59 -16 18 -16 19 11 8 24 -9
35 -7 74 16 67 39 127 106 164 182 31 62 33 74 33 167 0 92 -3 105 -32 165
-39 80 -109 152 -185 191 -46 23 -57 26 -62 14 -10 -27 -24 -16 -29 23 -5 42
42 264 55 256 4 -3 5 2 2 11 -4 8 -2 21 4 28 11 14 85 297 79 303 -4 4 -56
-136 -105 -281 -19 -56 -63 -207 -92 -317 -13 -48 -35 -63 -47 -32 -19 50 133
496 271 797 19 42 33 77 31 77 -9 0 63 137 80 154 9 9 51 78 92 154 41 75 84
152 95 170 39 63 11 30 -63 -73z m-415 -1651 c16 -16 9 -45 -15 -59 -31 -20
-86 25 -73 59 8 21 68 21 88 0z m76 -814 c6 -91 12 -181 15 -200 2 -20 -2 -11
-10 20 -25 98 -35 201 -39 410 l-3 205 13 -135 c7 -74 18 -209 24 -300z m27
-262 c-3 -8 -6 -5 -6 6 -1 11 2 17 5 13 3 -3 4 -12 1 -19z m10 -40 c-3 -8 -6
-5 -6 6 -1 11 2 17 5 13 3 -3 4 -12 1 -19z"/>
<path d="M6680 5235 c0 -5 5 -17 10 -25 5 -8 10 -10 10 -5 0 6 -5 17 -10 25
-5 8 -10 11 -10 5z"/>
<path d="M4789 5165 c-4 -22 0 -93 6 -107 4 -11 3 -18 -5 -18 -7 0 -9 -8 -5
-19 3 -10 8 -52 10 -92 12 -187 15 -221 19 -227 2 -4 7 -43 11 -86 3 -44 11
-88 16 -97 5 -10 6 -24 3 -32 -3 -8 2 -22 11 -31 9 -9 13 -16 8 -16 -5 0 -15
6 -22 13 -10 10 -11 9 -6 -4 7 -18 -5 -23 -585 -260 l-375 -153 -92 33 c-112
39 -113 39 -596 156 -442 108 -635 162 -833 235 -201 75 -288 118 -386 193
l-88 66 0 -64 c0 -76 9 -84 97 -91 36 -4 80 -17 122 -38 36 -19 172 -81 301
-139 129 -58 276 -124 325 -147 97 -45 112 -52 225 -100 41 -18 93 -40 115
-50 22 -10 128 -55 235 -100 107 -45 224 -95 260 -110 36 -16 121 -51 189 -80
l124 -51 266 112 c146 61 327 137 401 169 74 32 207 88 295 125 88 37 297 126
465 197 168 71 362 152 433 180 99 40 128 56 132 72 2 12 7 71 10 132 l6 111
-93 27 c-51 15 -203 61 -338 102 -135 42 -290 89 -345 105 -131 40 -148 45
-224 69 -65 20 -90 24 -92 15z"/>
<path d="M5800 4447 c0 -8 -12 -20 -27 -27 -50 -23 -1676 -725 -1810 -781
l-92 -39 -443 191 c-244 105 -657 284 -918 397 -457 198 -478 205 -542 206
l-68 1 0 -66 c0 -36 4 -123 10 -195 5 -71 28 -412 50 -759 23 -346 43 -636 45
-643 3 -7 26 -22 52 -33 25 -11 83 -42 127 -68 45 -27 158 -91 251 -143 196
-109 231 -129 380 -213 61 -35 261 -147 445 -250 184 -103 395 -221 467 -262
96 -55 139 -74 155 -69 13 3 82 38 153 79 72 40 285 160 475 266 190 107 426
239 525 296 99 56 207 117 240 135 33 18 114 63 180 100 66 37 157 86 202 109
l81 42 6 67 c8 84 95 1396 103 1555 l6 117 -26 0 c-16 0 -27 -6 -27 -13z"/>
<path d="M12730 3040 l0 -1060 2125 0 2125 0 0 1060 0 1060 -350 0 -350 0 -2
-707 -3 -708 -1420 0 -1420 0 -3 708 -2 707 -350 0 -350 0 0 -1060z"/>
<path d="M811 2999 c0 -8 10 -76 23 -150 75 -414 179 -748 312 -996 30 -57 57
-103 60 -103 2 0 -18 44 -45 98 -58 117 -93 209 -120 327 -23 96 -22 121 2 53
8 -24 42 -122 75 -218 33 -96 77 -205 97 -242 20 -38 33 -73 29 -80 -4 -6 -3
-8 4 -5 5 4 22 -13 37 -38 33 -57 39 -85 19 -85 -9 0 -27 -25 -42 -57 -24 -51
-27 -70 -27 -158 0 -91 3 -106 32 -167 55 -116 146 -187 274 -214 60 -12 86
-13 138 -4 81 14 168 56 186 89 8 15 14 20 15 13 0 -7 4 -11 9 -8 4 3 39 -24
77 -61 83 -79 178 -145 317 -218 125 -66 147 -71 49 -11 -153 95 -432 329
-432 363 0 29 54 3 115 -56 33 -32 96 -88 139 -125 126 -105 384 -274 398
-260 3 3 61 -24 127 -60 67 -36 159 -79 204 -95 84 -29 266 -75 273 -68 2 2
-29 14 -69 26 -315 102 -646 301 -986 596 -66 58 -126 105 -133 105 -7 1 -1 7
14 15 34 19 52 93 46 196 -5 92 -38 168 -104 239 -52 56 -152 110 -203 110
-28 0 -30 -2 -20 -19 17 -27 5 -50 -37 -67 -67 -28 -141 17 -108 64 19 27 7
28 -52 6 -35 -13 -40 -19 -36 -40 8 -41 -11 -27 -58 43 -25 36 -51 72 -58 80
-7 7 -10 13 -5 13 4 0 1 6 -8 13 -9 7 -16 15 -15 18 1 3 -35 66 -79 140 -43
74 -104 177 -133 229 -64 112 -63 107 14 -65 63 -142 178 -370 242 -480 40
-69 41 -96 1 -75 -49 27 -239 417 -349 717 -19 50 -37 90 -41 88 -7 -5 -56
158 -57 190 0 11 -23 99 -50 195 -27 96 -52 184 -55 195 -3 13 -5 14 -6 4z
m188 -649 c0 -10 -3 -8 -9 5 -12 27 -12 43 0 25 5 -8 9 -22 9 -30z m20 -60 c0
-10 -3 -8 -9 5 -12 27 -12 43 0 25 5 -8 9 -22 9 -30z m715 -963 c23 -17 14
-53 -15 -62 -42 -14 -76 17 -64 56 7 23 52 26 79 6z m553 -438 c34 -32 91 -78
127 -104 82 -58 87 -70 7 -16 -90 61 -183 138 -215 179 -26 32 -27 34 -6 17
14 -11 53 -45 87 -76z m263 -195 c0 -2 -13 2 -30 11 -16 9 -30 18 -30 21 0 2
14 -2 30 -11 17 -9 30 -18 30 -21z"/>
<path d="M7151 2974 c0 -11 3 -14 6 -6 3 7 2 16 -1 19 -3 4 -6 -2 -5 -13z"/>
<path d="M7135 2923 c-16 -64 -100 -266 -156 -372 -137 -261 -320 -502 -581
-763 -108 -108 -117 -115 -120 -91 -4 32 -50 51 -145 60 -64 6 -79 -2 -43 -25
26 -16 25 -34 -2 -59 -32 -29 -63 -36 -103 -23 -37 12 -48 43 -23 68 19 19 -7
15 -53 -9 -62 -31 -127 -102 -162 -177 -27 -57 -31 -78 -31 -152 -1 -100 17
-166 48 -174 19 -6 17 -9 -19 -32 -22 -14 -175 -92 -340 -175 -165 -82 -297
-149 -294 -149 9 0 167 55 279 98 193 73 394 164 423 190 18 16 18 15 15 -17
-3 -32 -9 -37 -88 -77 -272 -138 -757 -286 -1212 -370 -54 -10 -96 -19 -94
-22 3 -2 51 3 108 12 57 8 158 20 226 26 261 24 484 76 712 167 121 48 305
138 364 178 26 18 36 21 36 10 0 -20 115 -72 188 -85 256 -45 489 191 442 449
-15 81 -48 151 -72 151 -13 0 9 31 77 108 52 59 101 119 107 134 7 15 16 24
22 21 5 -3 6 -1 2 5 -3 6 2 15 11 21 10 6 14 11 9 11 -4 0 5 14 21 30 27 27
143 211 143 226 0 3 -25 -29 -56 -72 -84 -117 -126 -167 -254 -297 -128 -132
-180 -170 -180 -131 0 9 62 78 138 153 147 145 251 270 350 418 82 122 165
280 158 299 -3 8 -2 13 3 10 5 -3 12 1 15 10 3 8 2 12 -4 9 -6 -3 -7 1 -4 9 3
9 11 13 17 9 5 -3 7 -1 4 5 -8 11 62 195 75 200 5 2 6 8 3 13 -3 4 1 19 9 31
15 25 50 157 43 164 -3 3 -8 -8 -12 -23z m-853 -1606 c13 -20 9 -35 -13 -50
-41 -29 -92 11 -68 54 9 17 17 20 42 15 17 -4 35 -12 39 -19z"/>
<path d="M5677 2596 c-10 -14 -125 -86 -279 -174 -703 -400 -1447 -822 -1486
-841 l-43 -22 -52 29 c-105 59 -1249 708 -1462 830 -209 119 -223 125 -278
126 l-57 1 0 -72 c0 -49 5 -76 14 -86 8 -8 128 -81 268 -162 304 -178 757
-443 1198 -702 179 -105 337 -197 352 -203 24 -12 42 -3 270 131 346 203 823
482 1108 649 445 260 481 282 486 294 2 6 5 58 6 116 3 89 1 105 -13 108 -9 1
-23 -8 -32 -22z"/>
<path d="M1216 1727 c3 -10 9 -15 12 -12 3 3 0 11 -7 18 -10 9 -11 8 -5 -6z"/>
<path d="M2050 1176 c0 -5 218 -175 309 -240 162 -117 277 -189 461 -288 163
-88 415 -176 620 -217 53 -11 55 -12 56 -45 1 -84 106 -218 212 -272 52 -26
66 -29 162 -29 99 0 110 2 172 33 108 53 202 177 203 268 l0 41 45 1 c77 4
241 23 320 37 84 16 272 67 266 72 -1 2 -34 -3 -72 -11 -140 -28 -253 -39
-416 -40 -91 -1 -170 3 -175 7 -24 24 34 34 229 40 448 14 805 111 1141 309
79 47 88 59 18 23 -118 -59 -344 -140 -491 -174 -242 -57 -416 -80 -675 -88
-110 -3 -205 -10 -212 -15 -9 -7 -9 -2 0 21 10 27 8 37 -13 77 -56 102 -177
183 -290 192 l-65 5 28 -24 c26 -23 27 -25 11 -47 -23 -33 -60 -45 -100 -32
-41 14 -48 32 -23 64 18 23 18 26 4 26 -34 0 -128 -54 -173 -99 -26 -26 -58
-68 -72 -94 -14 -26 -32 -47 -40 -47 -9 0 -5 -6 9 -13 43 -22 37 -35 -13 -26
-105 19 -358 93 -619 180 -139 46 -151 48 -77 13 153 -73 356 -153 538 -213
193 -64 202 -68 184 -84 -18 -16 -26 -15 -138 17 -316 91 -696 278 -1156 569
-93 58 -168 104 -168 103z m1944 -732 c20 -8 21 -48 1 -64 -19 -15 -61 -6 -69
16 -16 42 19 67 68 48z"/>
<path d="M4378 643 c6 -2 18 -2 25 0 6 3 1 5 -13 5 -14 0 -19 -2 -12 -5z"/>
</g>
</svg>
